<svg xmlns="http://www.w3.org/2000/svg" viewBox="0 0 800 450" fill="none">
  <defs>
    <linearGradient id="bg1" x1="0" y1="0" x2="1" y2="1">
      <stop offset="0%" stop-color="#0f1a2e"/>
      <stop offset="100%" stop-color="#1a1a2e"/>
    </linearGradient>
  </defs>
  <rect width="800" height="450" fill="url(#bg1)"/>
  <!-- Decorative circles -->
  <circle cx="650" cy="80" r="220" fill="#3b82f6" opacity="0.08"/>
  <circle cx="120" cy="380" r="170" fill="#3b82f6" opacity="0.06"/>
  <!-- Comparison bars visual -->
  <rect x="220" y="100" width="360" height="20" rx="4" fill="#3b82f6" opacity="0.15"/>
  <rect x="220" y="100" width="320" height="20" rx="4" fill="#3b82f6" opacity="0.3"/>
  <text x="210" y="116" text-anchor="end" font-family="Arial, sans-serif" font-size="12" fill="#a0a0b0" opacity="0.8">币安</text>
  <rect x="220" y="130" width="360" height="20" rx="4" fill="#a855f7" opacity="0.15"/>
  <rect x="220" y="130" width="280" height="20" rx="4" fill="#a855f7" opacity="0.3"/>
  <text x="210" y="146" text-anchor="end" font-family="Arial, sans-serif" font-size="12" fill="#a0a0b0" opacity="0.8">OKX</text>
  <rect x="220" y="160" width="360" height="20" rx="4" fill="#10b981" opacity="0.15"/>
  <rect x="220" y="160" width="300" height="20" rx="4" fill="#10b981" opacity="0.3"/>
  <text x="210" y="176" text-anchor="end" font-family="Arial, sans-serif" font-size="12" fill="#a0a0b0" opacity="0.8">Bitget</text>
  <rect x="220" y="190" width="360" height="20" rx="4" fill="#f59e0b" opacity="0.15"/>
  <rect x="220" y="190" width="240" height="20" rx="4" fill="#f59e0b" opacity="0.3"/>
  <text x="210" y="206" text-anchor="end" font-family="Arial, sans-serif" font-size="12" fill="#a0a0b0" opacity="0.8">Gate.io</text>
  <text x="400" y="280" text-anchor="middle" font-family="Arial, sans-serif" font-weight="bold" font-size="36" fill="#60a5fa">2026十大加密货币</text>
  <text x="400" y="340" text-anchor="middle" font-family="Arial, sans-serif" font-weight="bold" font-size="42" fill="white">交易所深度对比</text>
  <text x="400" y="390" text-anchor="middle" font-family="Arial, sans-serif" font-size="20" fill="#a0a0b0">费率、安全、体验全测评</text>
  <rect x="300" y="420" width="200" height="3" rx="1.5" fill="#60a5fa"/>
</svg>
